<?xml version="1.0" encoding="UTF-8"?>
<svg id="Layer_2" data-name="Layer 2" xmlns="http://www.w3.org/2000/svg" viewBox="0 0 243.76 322.74">
  <defs>
    <style>
      .cls-1 {
        fill: #212529;
      }

      .cls-1, .cls-2 {
        stroke-width: 0px;
      }

      .cls-2 {
        fill: #fff;
      }
    </style>
  </defs>
  <g id="Layer_1-2" data-name="Layer 1">
    <path class="cls-2" d="m218.32,199.77c0,25.58.14,51.16-.04,76.75-.15,22.39-13.15,39.41-34,44.67-3.97,1-8.19,1.43-12.3,1.45-33.37.12-66.73.13-100.1.07-27.08-.04-46.35-19.39-46.38-46.57-.05-50.5-.44-101,.12-151.5.44-39.5,18.81-68.67,53.83-87.08,3.49-1.84,5.4-3.6,5.84-7.96,1.49-14.95,14.14-27.28,29.09-29.08,15.66-1.89,29.7.93,38.85,15.2,2.69,4.19,4.43,9.35,5.21,14.29.61,3.87,2.13,5.55,5.37,7.2,29.61,15.13,47.64,38.99,53.17,71.94.96,5.7,1.24,11.57,1.27,17.36.14,24.42.06,48.84.06,73.26Zm-96.41-13.32s0,.02,0,.02c-18.22,0-36.45-.05-54.67.02-8.48.03-12.15,3.75-12.16,12.16-.03,25.25-.03,50.5,0,75.75.02,10.95,7.08,18.32,17.93,18.36,32.54.11,65.08.11,97.61.02,10.89-.03,18.05-7.31,18.08-18.22.07-25.25.05-50.5.01-75.75-.01-8.33-3.68-12.24-12.14-12.32-18.23-.17-36.46-.05-54.69-.05Zm87.79-44.83h-.34c0-9.14.96-18.4-.16-27.39-6.1-48.76-46.86-81.56-95.89-77.7-38.58,3.04-72.85,34.66-77.88,73.11-1.78,13.59-1.02,27.51-1.32,41.28-.13,5.81-.11,11.63.12,17.44.05,1.2,1.11,2.79,2.16,3.37.82.45,2.99-.02,3.43-.75.86-1.45,1.26-3.37,1.27-5.1.1-13.79.09-27.59.06-41.38-.04-19.36,5.79-36.8,18.32-51.46,22.41-26.22,51.06-35.88,84.16-26.56,32.83,9.24,53.01,32.07,57.79,65.98,2.49,17.61,1.04,35.79,1.26,53.71.03,2.87.03,5.79,3.61,5.86,3.45.07,3.43-2.88,3.42-5.48-.02-8.31,0-16.62,0-24.93Zm-88.15-26.3c6.14,0,12.27-.03,18.41.01,3.9.03,5.84-1.8,5.81-5.73-.03-3.98.02-7.97-.02-11.95-.04-3.16-1.64-5.08-4.84-5.1-12.61-.07-25.21-.06-37.82,0-3.47.01-5.07,2.01-5.06,5.41,0,3.65.11,7.31-.03,10.95-.19,4.73,2.07,6.58,6.64,6.47,5.64-.14,11.28-.03,16.92-.05Zm-.26,50.84s0,.08,0,.12c-20.55,0-41.1.03-61.65-.03-2.71,0-5.08.65-4.47,3.64.28,1.37,2.75,2.99,4.41,3.23,3.57.51,7.25.22,10.89.2,19.37-.09,38.75-.26,58.12-.26,18.22,0,36.45.17,54.67.28,2.76.02,5.81,0,5.7-3.77-.09-3.36-2.89-3.43-5.52-3.42-20.72.03-41.43.02-62.15.02ZM93.91,31.7c18.9-5.51,37.46-5.3,56.1-.06-.94-15.03-12.51-23.38-30.88-23.09-13.76.22-24.88,10.04-25.22,23.15Z"/>
    <path class="cls-2" d="m63.41,38.84c-9.7,9.98-18.78,19.32-28.16,28.98-3.56-4.58-7.63-9.83-12.52-16.12-.19,3.11-.35,4.84-.4,6.58-.62,20.4-1.17,40.81-1.96,61.21-.07,1.7-1.68,3.33-2.58,4.99-1.08-1.61-2.87-3.12-3.14-4.85-3.92-25.74-7.63-51.51-11.39-77.27C2.21,35.13,1.15,27.91.12,20.69c-.62-4.34,1.08-7.39,5.14-9.15,7.15-3.08,14.28-6.22,21.43-9.31,3.71-1.6,7.37-1.5,9.96,1.81,9.19,11.73,18.19,23.62,26.76,34.79Z"/>
    <path class="cls-2" d="m208.54,67.79c-9.45-9.71-18.62-19.13-28.2-28.97,8.67-11.26,17.65-23.38,27.27-34.96,1.52-1.84,6.33-2.49,8.91-1.61,7.66,2.61,14.99,6.21,22.41,9.51,4.08,1.82,5.3,5.14,4.68,9.41-2.55,17.39-5.05,34.79-7.59,52.19-2.18,14.93-4.38,29.86-6.59,44.79-.19,1.31-.23,2.75-.82,3.87-.53,1-1.72,1.65-2.62,2.46-.87-1-2.4-1.93-2.51-3.01-.45-4.28-.49-8.61-.62-12.93-.48-16.76-.93-33.52-1.41-50.28-.05-1.75-.2-3.49-.38-6.56-4.81,6.18-8.82,11.34-12.52,16.1Z"/>
    <path class="cls-1" d="m121.91,186.45c18.23,0,36.46-.12,54.69.05,8.46.08,12.12,3.99,12.14,12.32.04,25.25.06,50.5-.01,75.75-.03,10.91-7.2,18.19-18.08,18.22-32.54.08-65.08.09-97.61-.02-10.85-.04-17.91-7.41-17.93-18.36-.04-25.25-.04-50.5,0-75.75,0-8.41,3.68-12.13,12.16-12.16,18.22-.07,36.45-.02,54.67-.02,0,0,0-.02,0-.02Z"/>
    <path class="cls-1" d="m209.7,141.62c0,8.31-.01,16.62,0,24.93,0,2.59.03,5.54-3.42,5.48-3.58-.07-3.58-2.99-3.61-5.86-.22-17.92,1.23-36.1-1.26-53.71-4.79-33.91-24.96-56.74-57.79-65.98-33.1-9.31-61.75.35-84.16,26.56-12.53,14.66-18.36,32.11-18.32,51.46.03,13.79.04,27.59-.06,41.38-.01,1.73-.41,3.64-1.27,5.1-.43.73-2.61,1.2-3.43.75-1.05-.58-2.11-2.17-2.16-3.37-.23-5.81-.25-11.63-.12-17.44.3-13.77-.46-27.69,1.32-41.28,5.03-38.46,39.29-70.07,77.88-73.11,49.04-3.86,89.8,28.94,95.89,77.7,1.12,9,.16,18.25.16,27.39h.34Z"/>
    <path class="cls-1" d="m121.55,115.33c-5.64,0-11.28-.1-16.92.04-4.57.12-6.83-1.74-6.64-6.47.14-3.65.04-7.3.03-10.95,0-3.4,1.59-5.39,5.06-5.41,12.61-.05,25.21-.06,37.82,0,3.21.02,4.81,1.94,4.84,5.1.04,3.98,0,7.97.02,11.95.03,3.93-1.92,5.76-5.81,5.73-6.14-.04-12.27-.01-18.41,0Z"/>
    <path class="cls-1" d="m121.29,166.16c20.72,0,41.43.01,62.15-.02,2.63,0,5.43.06,5.52,3.42.11,3.77-2.94,3.78-5.7,3.77-18.22-.1-36.45-.28-54.67-.28-19.37,0-38.75.18-58.12.26-3.64.02-7.32.3-10.89-.2-1.66-.24-4.12-1.86-4.41-3.23-.62-2.99,1.76-3.65,4.47-3.64,20.55.06,41.1.03,61.65.03,0-.04,0-.08,0-.12Z"/>
    <path class="cls-1" d="m93.91,31.7c.34-13.1,11.46-22.93,25.22-23.15,18.37-.29,29.94,8.06,30.88,23.09-18.64-5.24-37.2-5.46-56.1.06Z"/>
  </g>
</svg>